<svg width="56" height="69" viewBox="0 0 56 69" fill="none" xmlns="http://www.w3.org/2000/svg">
<g clip-path="url(#clip0_571_15)">
<path d="M55.9551 4.43637C55.5235 2.82829 54.4845 1.48883 53.0294 0.663845C51.5807 -0.157496 49.8979 -0.363742 48.2962 0.0806199C46.6945 0.525438 45.3624 1.56577 44.5437 3.01041L30.5363 27.7171L25.0219 24.5907C24.063 24.047 22.9776 23.7598 21.8804 23.7598C19.5866 23.7598 17.4595 24.9986 16.3286 26.9932C15.4881 28.4752 15.2759 30.1953 15.7294 31.837C16.0536 33.0126 16.6973 34.0434 17.5779 34.8447C14.5019 39.9125 7.16085 49.7905 1.48977 48.4729C0.952529 48.3426 0.393434 48.5475 0.0592519 48.9846C-0.27493 49.4226 -0.32137 50.0154 -0.0600339 50.4998C0.883325 52.2427 3.52582 55.4734 7.12079 58.7624C7.2592 58.9873 7.45952 59.1703 7.70174 59.2878C10.3916 61.6835 13.5677 64.0656 16.9459 65.8904C17.1426 66.0907 17.3976 66.2328 17.6917 66.2865C21.0763 68.0139 24.6385 69.1494 28.1023 69.1485C30.0127 69.1485 31.8949 68.8034 33.6969 68.0221C37.5086 66.1017 44.6275 56.9485 43.4583 48.8908C43.5485 48.8945 43.6368 48.9081 43.727 48.9081C46.0207 48.9081 48.1487 47.6697 49.2788 45.6765C50.1192 44.194 50.3323 42.4731 49.8788 40.8313C49.4254 39.1886 48.3591 37.8218 46.8776 36.9823L41.3585 33.854L55.3669 9.1468C56.1737 7.72311 56.3867 6.00302 55.9551 4.43637ZM32.5114 65.4898C29.8452 66.6444 26.9277 66.6207 23.9874 65.8595C28.5922 64.4253 30.7139 60.884 30.8332 60.6783C31.2183 60.0126 30.9907 59.1631 30.3269 58.7742C29.6622 58.3854 28.8071 58.6094 28.4156 59.2714C28.2881 59.4854 25.2459 64.4544 18.2717 63.542C16.0845 62.3574 13.9729 60.9004 12.0352 59.3588C17.6453 58.5074 20.4253 54.4963 20.5627 54.2905C20.9925 53.6522 20.8232 52.789 20.1858 52.3574C19.5493 51.9249 18.6815 52.0915 18.2444 52.7253C18.1169 52.9119 15.0947 57.1707 8.90825 56.6744C6.80573 54.7285 5.05742 52.8154 3.85819 51.2884C10.9653 50.1529 17.6689 40.0901 19.929 36.3649L40.386 47.9638C42.5323 54.8424 35.3451 64.0592 32.5114 65.4898ZM47.1826 41.5761C47.4376 42.4976 47.3174 43.4638 46.8457 44.296C46.211 45.416 45.0154 46.1108 43.727 46.1108C43.1132 46.1108 42.5041 45.9496 41.9659 45.6446L20.1111 33.2521C19.2788 32.7813 18.6797 32.0137 18.4256 31.0913C18.1707 30.1702 18.2899 29.2046 18.7616 28.3727C19.3972 27.2527 20.5919 26.5571 21.8804 26.5571C22.4941 26.5571 23.1033 26.7182 23.6423 27.0237L30.3205 30.8108C30.3378 30.8208 30.3524 30.8345 30.3697 30.8454C30.3879 30.8545 30.407 30.86 30.4252 30.8691L38.7097 35.5663C38.727 35.5772 38.7415 35.5918 38.7598 35.6018C38.7734 35.61 38.7889 35.6118 38.8035 35.6191L45.498 39.4153C46.3294 39.887 46.9276 40.6546 47.1826 41.5761ZM52.9338 7.76772L38.9264 32.4735L32.9694 29.0967L46.9768 4.38993C47.4285 3.59409 48.1624 3.02088 49.0438 2.77639C49.9289 2.53099 50.8531 2.64526 51.649 3.09691C52.4476 3.54992 53.0176 4.28294 53.2552 5.17075C53.4947 6.03762 53.3773 6.98463 52.9338 7.76772Z" fill="#332626"/>
<path d="M12.3439 23.6463C13.0497 23.6463 13.6219 23.0741 13.6219 22.3683C13.6219 21.6625 13.0497 21.0903 12.3439 21.0903C11.6381 21.0903 11.0659 21.6625 11.0659 22.3683C11.0659 23.0741 11.6381 23.6463 12.3439 23.6463Z" fill="#332626"/>
<path d="M8.95484 35.3401C10.6145 35.3401 11.96 33.9947 11.96 32.335C11.96 30.6753 10.6145 29.3298 8.95484 29.3298C7.29515 29.3298 5.94971 30.6753 5.94971 32.335C5.94971 33.9947 7.29515 35.3401 8.95484 35.3401Z" fill="#332626"/>
<path d="M5.36715 26.5471C6.52106 26.5471 7.45648 25.6116 7.45648 24.4577C7.45648 23.3038 6.52106 22.3684 5.36715 22.3684C4.21325 22.3684 3.27783 23.3038 3.27783 24.4577C3.27783 25.6116 4.21325 26.5471 5.36715 26.5471Z" fill="#332626"/>
</g>
<defs>
<clipPath id="clip0_571_15">
<rect width="55.9459" height="69" fill="white"/>
</clipPath>
</defs>
</svg>
