<svg width="53" height="69" viewBox="0 0 53 69" fill="none" xmlns="http://www.w3.org/2000/svg">
<g clip-path="url(#clip0_571_38)">
<path d="M26.4475 6.98619C16.764 6.98619 9.73857 14.733 9.73857 25.4045V54.5178C9.73857 55.051 10.1698 55.4744 10.6952 55.4744H42.1921C42.7253 55.4744 43.1487 55.0431 43.1487 54.5178V25.4045C43.1487 14.733 36.1232 6.98619 26.4397 6.98619H26.4475ZM41.2355 53.5612H11.6596V25.4123C11.6596 15.8464 17.8774 8.90722 26.4475 8.90722C35.0177 8.90722 41.2355 15.8464 41.2355 25.4123V53.5612ZM48.9666 58.9087V22.6758C48.9666 10.3656 38.8127 0.352783 26.3221 0.352783C13.8315 0.352783 3.67755 10.3656 3.67755 22.6758V58.9087H0.36084V69.2352H52.8714V58.9087H48.9588H48.9666ZM5.61425 22.6758C6.75118 -4.39881 45.9322 -4.38313 47.0613 22.6758V58.9087H5.61425V22.6758ZM50.9739 67.322H2.29755V60.8297H50.9739V67.322Z" fill="black"/>
</g>
<defs>
<clipPath id="clip0_571_38">
<rect width="52.5341" height="69" fill="white"/>
</clipPath>
</defs>
</svg>
