<svg width="55" height="69" viewBox="0 0 55 69" fill="none" xmlns="http://www.w3.org/2000/svg">
<g clip-path="url(#clip0_571_6)">
<path d="M51.1711 13.8057C51.1925 13.2963 51.2053 12.7213 51.2053 12.65C51.2053 9.87045 48.7503 7.5463 45.503 7.015C45.5044 6.97705 45.5158 6.93795 45.5158 6.9C45.5158 4.3631 42.9641 2.3 39.8263 2.3C39.2588 2.3 38.7026 2.37015 38.1636 2.50815C36.562 1.1983 33.9619 0.782 31.8525 1.54445C30.5482 0.55315 28.8442 0 27.025 0C25.2058 0 23.5018 0.55315 22.1975 1.54445C20.0895 0.782 17.488 1.1983 15.8864 2.50815C15.3474 2.37015 14.7912 2.3 14.2237 2.3C11.0859 2.3 8.53421 4.3631 8.53421 6.9C8.53421 6.93795 8.54559 6.97705 8.54701 7.015C5.29975 7.5463 2.84474 9.87045 2.84474 12.65C2.84474 12.7213 2.85754 13.2963 2.87887 13.8057C1.14216 14.8557 0 16.5163 0 18.4C0 21.5705 3.19037 24.15 7.11184 24.15H13.5381C14.5352 25.1815 15.555 26.3776 15.7072 26.7835C15.7214 26.8203 15.7399 26.8502 15.7556 26.8858C15.7584 26.8916 15.7613 26.8985 15.7641 26.9054C16.9788 29.9862 19.6998 31.2708 22.2046 32.1091C22.3454 32.1724 22.7579 32.6013 22.7579 33.35V41.4C22.7579 42.8973 23.9498 44.1611 25.6026 44.6372V52.0225C24.8829 51.1278 24.0921 50.3941 23.3098 49.6697C21.1549 47.6744 19.1195 45.7884 18.4851 40.1465C18.4225 39.5876 17.8692 39.1471 17.1779 39.1034C16.4724 39.0632 15.8566 39.4277 15.6887 39.9706C15.629 40.1649 14.2237 44.75 14.2237 48.3C14.2237 58.4039 22.5886 61.9608 25.6026 62.9165V67.85C25.6026 68.4848 26.2399 69 27.025 69C27.8101 69 28.4474 68.4848 28.4474 67.85V62.9165C31.4614 61.9608 39.8263 58.4039 39.8263 48.3C39.8263 44.75 38.421 40.1649 38.3613 39.9706C38.1934 39.4266 37.5662 39.0632 36.8721 39.1034C36.1808 39.1471 35.6275 39.5876 35.5649 40.1465C34.9305 45.7884 32.8951 47.6744 30.7402 49.6697C29.9565 50.3953 29.1671 51.129 28.4474 52.0237V44.6384C30.1002 44.1612 31.2921 42.8973 31.2921 41.4V33.35C31.2921 32.6013 31.7046 32.1724 31.8354 32.1126C34.3858 31.2593 37.1537 29.9587 38.3428 26.7847C38.495 26.3787 39.5148 25.1827 40.5119 24.15H46.9382C50.8596 24.15 54.05 21.5705 54.05 18.4C54.05 16.5163 52.9078 14.8557 51.1711 13.8057ZM14.2237 4.6C14.6973 4.6 15.1653 4.70465 15.6133 4.9105C16.2747 5.2141 17.1125 5.0439 17.5179 4.5264C18.377 3.43045 20.3015 3.11765 21.6214 3.92725C21.923 4.1124 22.3056 4.18945 22.6797 4.1492C23.0552 4.1055 23.3937 3.94335 23.6213 3.6984C24.4391 2.80945 25.6809 2.3 27.025 2.3C28.3691 2.3 29.6109 2.80945 30.4302 3.69725C30.6577 3.9422 30.9948 4.10435 31.3718 4.14805C31.7487 4.1883 32.127 4.11125 32.43 3.9261C33.7514 3.11765 35.6773 3.43045 36.5335 4.52525C36.9389 5.04275 37.7767 5.2118 38.4381 4.90935C38.8847 4.70465 39.3527 4.6 39.8263 4.6C41.3952 4.6 42.6711 5.63155 42.6711 6.9C42.6711 6.9437 42.6582 6.9897 42.6554 7.0334C41.9158 7.1599 41.2017 7.3715 40.5375 7.68775C38.3684 6.65275 35.5948 6.65275 33.4257 7.68775C31.4955 6.76545 29.0988 6.64355 27.025 7.39565C24.9526 6.6447 22.5545 6.7666 20.6243 7.68775C18.4552 6.65275 15.6816 6.65275 13.5125 7.68775C12.8497 7.3715 12.1342 7.1599 11.3946 7.0334C11.3917 6.9897 11.3789 6.9437 11.3789 6.9C11.3789 5.63155 12.6548 4.6 14.2237 4.6ZM5.68947 12.65C5.68947 10.7479 7.60398 9.2 9.95658 9.2C10.0163 9.2 10.0732 9.21035 10.133 9.21265C10.1458 9.21265 10.1586 9.21495 10.1728 9.21495C11.0546 9.2529 11.8967 9.5082 12.6193 9.9797C13.1398 10.3201 13.8866 10.3201 14.4072 9.9797C15.9704 8.9585 18.1693 8.9585 19.7311 9.9797C20.2517 10.3201 20.9984 10.3201 21.519 9.9797C22.8973 9.07925 24.7449 8.94355 26.3095 9.6807C26.7519 9.89 27.2995 9.89 27.7419 9.6807C29.3065 8.9424 31.1527 9.07925 32.5324 9.9797C33.053 10.3201 33.7997 10.3201 34.3203 9.9797C35.8835 8.9585 38.0825 8.9585 39.6443 9.9797C40.1648 10.3201 40.9116 10.3201 41.4322 9.9797C42.1391 9.51855 42.9612 9.26555 43.8217 9.2184H43.8246C43.8289 9.2184 43.8331 9.21725 43.8374 9.21725C43.9227 9.2138 44.0067 9.2 44.0934 9.2C46.446 9.2 48.3605 10.7479 48.3605 12.65C48.3605 12.6753 48.3605 12.7178 48.3591 12.7661C47.8997 12.6902 47.4246 12.65 46.9382 12.65C45.6779 12.65 44.4675 12.9202 43.3822 13.4389C41.2131 12.4039 38.4395 12.4039 36.2704 13.4389C35.1851 12.9202 33.9747 12.65 32.7145 12.65C30.3804 12.65 28.3222 13.5769 27.025 14.9857C25.7278 13.5769 23.6696 12.65 21.3355 12.65C20.0753 12.65 18.8649 12.9202 17.7796 13.4389C15.6105 12.4039 12.8369 12.4039 10.6678 13.4389C9.5825 12.9202 8.37206 12.65 7.11184 12.65C6.62539 12.65 6.15032 12.6902 5.6909 12.7661C5.68947 12.7178 5.68947 12.6753 5.68947 12.65ZM2.84474 18.4C2.84474 16.4979 4.75924 14.95 7.11184 14.95C8.07194 14.95 8.99221 15.2191 9.77452 15.7297C10.2951 16.0701 11.0418 16.0701 11.5624 15.7297C13.1256 14.7085 15.3246 14.7085 16.8864 15.7297C17.4069 16.0701 18.1537 16.0701 18.6743 15.7297C19.4552 15.2191 20.3754 14.95 21.3355 14.95C23.6881 14.95 25.6026 16.4979 25.6026 18.4V21.85H7.11184C4.75924 21.85 2.84474 20.3021 2.84474 18.4ZM17.0684 48.3C17.0684 47.6445 17.1239 46.9407 17.2121 46.2334C18.3215 48.5472 19.7994 49.9157 21.1663 51.1819C23.3368 53.1921 25.2371 54.9516 25.5557 60.4049C22.5986 59.2365 17.0684 56.0177 17.0684 48.3ZM32.8837 51.1819C34.2506 49.9157 35.7285 48.5461 36.8379 46.2334C36.9261 46.9407 36.9816 47.6445 36.9816 48.3C36.9816 56.0866 31.4585 59.271 28.4943 60.4198C28.8101 54.9562 30.7118 53.1944 32.8837 51.1819ZM35.6204 26.1165C34.9206 27.9841 33.6006 29.0329 30.7488 29.9874C29.3932 30.4405 28.4474 31.8239 28.4474 33.35V41.4C28.4474 42.0336 27.8087 42.55 27.025 42.55C26.2413 42.55 25.6026 42.0336 25.6026 41.4V33.35C25.6026 31.8239 24.6568 30.4405 23.3012 29.9874C21.3128 29.3216 20.0782 28.6028 19.2702 27.6H24.1803C24.9654 27.6 25.6026 27.0848 25.6026 26.45C25.6026 25.8152 24.9654 25.3 24.1803 25.3H17.9674C17.7156 24.932 17.4055 24.5375 17.0741 24.15H27.025H36.9759C36.3756 24.8515 35.8181 25.5909 35.6204 26.1165ZM46.9382 21.85H28.4474V18.4C28.4474 16.4979 30.3619 14.95 32.7145 14.95C33.6746 14.95 34.5948 15.2191 35.3771 15.7297C35.8977 16.0701 36.6445 16.0701 37.1651 15.7297C38.7282 14.7085 40.9272 14.7085 42.489 15.7297C43.0096 16.0701 43.7563 16.0701 44.2769 15.7297C45.0578 15.2191 45.9781 14.95 46.9382 14.95C47.6778 14.95 48.3634 15.1167 48.9707 15.3847C48.9849 15.3916 49.0006 15.3974 49.0148 15.4043C50.3149 15.9965 51.2053 17.1097 51.2053 18.4C51.2053 20.3021 49.2908 21.85 46.9382 21.85Z" fill="#332626"/>
<path d="M29.8696 27.5999C30.2394 27.5999 30.6093 27.4734 30.8795 27.2664C31.1355 27.0479 31.292 26.7489 31.292 26.4499C31.292 26.1509 31.1355 25.8519 30.8795 25.6334C30.339 25.2079 29.386 25.2194 28.8598 25.6334C28.6037 25.8519 28.4473 26.1394 28.4473 26.4499C28.4473 26.7604 28.6037 27.0479 28.8598 27.2664C29.13 27.4734 29.4998 27.5999 29.8696 27.5999Z" fill="#332626"/>
<path d="M41.2486 18.3999H34.1367C33.3516 18.3999 32.7144 18.9151 32.7144 19.5499C32.7144 20.1847 33.3516 20.6999 34.1367 20.6999H41.2486C42.0337 20.6999 42.6709 20.1847 42.6709 19.5499C42.6709 18.9151 42.0337 18.3999 41.2486 18.3999Z" fill="#332626"/>
<path d="M44.5057 18.7334C44.2497 18.9519 44.0933 19.2509 44.0933 19.5499C44.0933 19.8604 44.2497 20.1479 44.5057 20.3664C44.776 20.5734 45.1458 20.6999 45.5156 20.6999C45.8854 20.6999 46.2553 20.5734 46.5255 20.3664C46.7815 20.1479 46.938 19.8604 46.938 19.5499C46.938 19.2509 46.7815 18.9519 46.5255 18.7334C45.985 18.3079 45.0462 18.3079 44.5057 18.7334Z" fill="#332626"/>
</g>
<defs>
<clipPath id="clip0_571_6">
<rect width="54.05" height="69" fill="white"/>
</clipPath>
</defs>
</svg>
