<svg width="72" height="50" viewBox="0 0 72 50" fill="none" xmlns="http://www.w3.org/2000/svg">
<path d="M14.5833 0H2.08333C0.9375 0 0 0.9375 0 2.08333V47.9167C0 49.0625 0.9375 50 2.08333 50H14.5833C15.7292 50 16.6667 49.0625 16.6667 47.9167V2.08333C16.6667 0.9375 15.7292 0 14.5833 0ZM12.5 12.5H4.16667V8.33333H12.5V12.5Z" fill="#EFEDE7"/>
<path d="M35.4168 0H22.9168C21.771 0 20.8335 0.9375 20.8335 2.08333V47.9167C20.8335 49.0625 21.771 50 22.9168 50H35.4168C36.5627 50 37.5002 49.0625 37.5002 47.9167V2.08333C37.5002 0.9375 36.5627 0 35.4168 0ZM33.3335 12.5H25.0002V8.33333H33.3335V12.5Z" fill="#EFEDE7"/>
<path d="M49.8081 3.22098L38.6456 8.84598C37.6206 9.36265 37.2081 10.621 37.7206 11.6418L56.4706 48.8502C56.9873 49.8751 58.2456 50.2877 59.2664 49.7752L70.4289 44.1501C71.4539 43.6335 71.8664 42.3751 71.3539 41.3543L52.6039 4.14598C52.0873 3.12098 50.8289 2.70848 49.8081 3.22098Z" fill="#EFEDE7"/>
<path d="M60.4167 47.9166C60.4167 49.0666 59.4833 49.9999 58.3333 49.9999C57.1833 49.9999 56.25 49.0666 56.25 47.9166C56.25 46.7666 57.1833 45.8333 58.3333 45.8333C59.4833 45.8333 60.4167 46.7666 60.4167 47.9166Z" fill="#EFEDE7"/>
</svg>
