<svg width="46" height="69" viewBox="0 0 46 69" fill="none" xmlns="http://www.w3.org/2000/svg">
<g clip-path="url(#clip0_571_24)">
<path d="M44.889 62.7664L34.0294 44.8107C33.3001 43.6267 32.2103 43.1249 31.0968 43.0935L27.7096 37.2207L36.1542 32.3436C36.1778 32.328 36.2013 32.3123 36.217 32.2966C37.2363 31.5517 37.9184 30.3521 38.0282 29.0975C38.1223 28.0155 37.7851 27.0197 37.0795 26.2826L13.0471 1.32501C11.5887 -0.188285 9.29912 -0.399989 7.59764 0.823193L2.48537 3.77922C0.572189 4.64172 -0.392243 6.7274 0.195825 8.75035L9.80878 42.0429C10.0911 43.023 10.7889 43.8149 11.769 44.2697C12.3492 44.5441 13 44.6774 13.643 44.6774C14.2624 44.6774 14.874 44.5519 15.4464 44.301C15.4699 44.2932 15.4934 44.2775 15.517 44.2618L23.8989 39.424L27.3018 45.3204C26.8079 46.2848 26.7216 47.4609 27.3646 48.6527L37.4872 67.0397C38.1693 68.2785 39.3141 68.9685 40.7098 68.9764C40.7176 68.9764 40.7255 68.9764 40.7412 68.9764C42.4034 68.9764 44.1363 67.9727 44.9517 66.53C45.6417 65.3147 45.6182 63.9739 44.889 62.7664ZM28.282 44.0972L23.6323 36.0446C23.2951 35.4565 23.8048 35.1193 23.9146 35.0566C24.0243 34.9939 24.5732 34.7194 24.9104 35.3075L29.5522 43.3444C29.3326 43.4307 29.1209 43.5248 28.9171 43.6424C28.6975 43.7757 28.4858 43.9325 28.282 44.0972ZM14.8191 42.9759C14.0586 43.2974 13.1333 43.2896 12.3884 42.9367C11.9729 42.7407 11.424 42.3565 11.2201 41.6273L1.60719 8.33478C1.22298 7.01751 1.8581 5.65319 3.12048 5.09649C3.14401 5.08865 3.16753 5.07297 3.19105 5.05728L8.36605 2.0699C8.38958 2.05422 8.4131 2.03853 8.42878 2.03069C9.54219 1.21524 11.032 1.34853 11.9886 2.33649L36.0131 27.3098C36.5384 27.8508 36.6012 28.5173 36.562 28.9799C36.4914 29.7954 36.0366 30.603 35.378 31.0969L29.4424 34.5234L18.0574 23.4285C17.8222 23.2011 17.4615 23.1541 17.1792 23.3188C16.897 23.4834 16.7558 23.8206 16.8342 24.1342L20.7547 39.5494L14.8191 42.9759ZM22.072 38.7889L18.8964 26.2983L28.1251 35.2918L26.9804 35.9583L26.1884 34.5783C25.4749 33.3394 24.1341 33.2453 23.1932 33.7942C22.2445 34.3431 21.6564 35.5427 22.3778 36.7816L23.1697 38.1538L22.072 38.7889ZM29.6541 44.9205C30.6578 44.3402 32.0142 44.3167 32.7826 45.5713L34.1705 47.8608L29.9521 50.2993L28.6583 47.9549C27.9526 46.6611 28.6505 45.5007 29.6541 44.9205ZM43.6737 65.8008C43.1091 66.7966 41.8624 67.5101 40.7176 67.5101C40.1217 67.5023 39.3063 67.2984 38.7731 66.334L30.6578 51.5852L34.9232 49.1232L43.6266 63.5269C44.199 64.4678 43.9716 65.2833 43.6737 65.8008Z" fill="#332626"/>
</g>
<defs>
<clipPath id="clip0_571_24">
<rect width="45.4773" height="69" fill="white"/>
</clipPath>
</defs>
</svg>
