<svg width="65" height="69" viewBox="0 0 65 69" fill="none" xmlns="http://www.w3.org/2000/svg">
<g clip-path="url(#clip0_571_28)">
<path d="M64.1831 17.3091C63.559 16.1875 62.8537 15.0459 62.087 13.9159C59.6483 10.3217 56.8583 7.35474 53.794 5.09691C50.6399 2.77238 47.0711 1.15318 43.4724 0.41411C39.902 -0.31959 36.6253 0.0652767 33.1561 0.473143C32.6233 0.535243 32.0866 0.598876 31.5461 0.65791C31.2647 0.688576 31.0087 0.83731 30.8423 1.06501C30.6759 1.29424 30.6131 1.58251 30.6698 1.86004C31.3866 5.34761 31.3123 15.8969 30.0059 20.891C28.3483 22.3645 26.572 24.1049 24.7366 26.0415C24.7274 26.0514 24.7182 26.0599 24.7097 26.0698C15.1962 36.1162 4.13545 51.4059 0.169484 61.9368L0.136518 62.0257C-0.642415 64.1019 0.0567844 66.454 1.87608 67.8792C2.82752 68.6244 3.93228 69.0001 5.03168 69.0001C5.99155 69.0001 6.94758 68.7134 7.79168 68.1345C11.2164 65.7878 14.385 62.9327 17.2087 59.6498C20.8863 55.3741 24.4483 50.8148 27.8929 46.4041C29.1526 44.7911 30.4091 43.1826 31.6695 41.5895C33.4743 39.3079 39.1522 31.99 40.2631 28.8942C44.2244 27.1462 48.0777 25.7187 51.8068 24.3395C55.5098 22.9702 59.3385 21.5542 63.3091 19.8131L63.375 19.7839C63.8642 19.57 64.3257 19.3676 64.5135 18.8126C64.7037 18.2445 64.4391 17.7691 64.1831 17.3091ZM30.091 40.3413C28.8283 41.9375 27.5694 43.5498 26.3067 45.166C22.8766 49.5574 19.33 54.0992 15.683 58.3388C12.9728 61.4898 9.93529 64.2268 6.65395 66.4755C5.35292 67.3671 3.97292 66.9669 3.11655 66.2953C2.24868 65.616 1.44138 64.2751 2.02098 62.7295L2.05395 62.6414C5.88268 52.4731 16.5064 37.7385 25.7662 27.8746C27.2735 28.4657 31.4579 30.4061 34.3835 34.6534C33.0656 36.4927 31.5637 38.4799 30.091 40.3413ZM35.6071 32.91C32.8119 29.161 29.2407 27.1869 27.2604 26.3136C28.6059 24.9359 29.91 23.6778 31.1497 22.5669C32.5021 23.0246 36.3078 24.5963 38.3549 28.2794C38.029 29.1894 36.9963 30.883 35.6071 32.91ZM51.1091 22.4519C47.4797 23.7944 43.7346 25.179 39.8637 26.8687C39.7402 26.6655 39.6107 26.47 39.478 26.2776C42.304 24.341 45.2211 22.4673 48.159 20.7078C48.6359 20.4226 48.7907 19.8054 48.5047 19.3293C48.2196 18.8517 47.6016 18.6976 47.1255 18.9828C44.1072 20.7898 41.1095 22.7164 38.2084 24.709C38.0106 24.4989 37.8105 24.2988 37.6074 24.1079C38.8394 22.2403 40.3459 20.5813 42.0862 19.1752C42.5179 18.8271 42.5853 18.1931 42.2365 17.7615C41.8884 17.3298 41.2552 17.2616 40.8228 17.6112C38.9751 19.1039 37.3704 20.8603 36.0464 22.8299C35.4469 22.4044 34.8558 22.0441 34.3015 21.7474C34.451 21.6538 34.5783 21.522 34.6641 21.3541C36.4566 17.832 37.957 14.1313 39.1254 10.3532C39.2986 10.0013 39.3186 9.66088 39.1836 9.34118C38.9667 8.82368 38.4024 8.57221 37.8734 8.75544C37.3636 8.93101 37.0584 9.44161 37.1458 9.94531C36.0204 13.5494 34.5821 17.0791 32.8717 20.4417C32.7774 20.628 32.7459 20.8304 32.7705 21.0229C32.5289 20.9232 32.3043 20.8373 32.1081 20.766C33.2412 15.7267 33.3662 6.79508 32.8165 2.53778C33.0089 2.51554 33.2006 2.49331 33.3922 2.47108C36.6958 2.08238 39.8154 1.71591 43.0691 2.38444C46.3834 3.06524 49.68 4.56408 52.6018 6.71611C55.4822 8.83824 58.1134 11.6404 60.4241 15.0452C61.1057 16.0495 61.7359 17.0623 62.2986 18.0589C58.4538 19.7364 54.7209 21.1164 51.1091 22.4519Z" fill="#332626"/>
<path d="M25.5178 30.0305C23.8411 31.0363 13.5847 45.5164 11.7746 48.399C9.96446 51.2817 12.3779 50.9467 14.7247 47.9965C17.0707 45.0472 26.0537 34.6558 27.7971 30.4997C27.7971 30.4997 27.1945 29.0254 25.5178 30.0305Z" fill="#332626"/>
</g>
<defs>
<clipPath id="clip0_571_28">
<rect width="64.4" height="69" fill="white"/>
</clipPath>
</defs>
</svg>
