<svg width="48" height="56" viewBox="0 0 48 56" fill="none" xmlns="http://www.w3.org/2000/svg">
<path d="M38.2649 53C42.1603 53 45.3179 49.6423 45.3179 45.5C45.3179 41.3578 42.1603 38 38.2649 38C34.3695 38 31.2119 41.3578 31.2119 45.5C31.2119 49.6423 34.3695 53 38.2649 53Z" stroke="#EFEDE7" stroke-width="5" stroke-linecap="round" stroke-linejoin="round"/>
<path d="M38.2649 18C42.1603 18 45.3179 14.6421 45.3179 10.5C45.3179 6.35788 42.1603 3 38.2649 3C34.3695 3 31.2119 6.35788 31.2119 10.5C31.2119 14.6421 34.3695 18 38.2649 18Z" stroke="#EFEDE7" stroke-width="5" stroke-linecap="round" stroke-linejoin="round"/>
<path d="M10.053 35.5C13.9483 35.5 17.106 32.1423 17.106 28C17.106 23.8578 13.9483 20.5 10.053 20.5C6.15775 20.5 3 23.8578 3 28C3 32.1423 6.15775 35.5 10.053 35.5Z" stroke="#EFEDE7" stroke-width="5" stroke-linecap="round" stroke-linejoin="round"/>
<path d="M32.3877 14.25L15.9307 24.25" stroke="#EFEDE7" stroke-width="5"/>
<path d="M15.9307 31.75L32.3877 41.75" stroke="#EFEDE7" stroke-width="5"/>
</svg>
