<svg width="42" height="50" viewBox="0 0 42 50" fill="none" xmlns="http://www.w3.org/2000/svg">
<path d="M41.5112 16.0667H25.4445V0H29.9356L41.5113 11.5755L41.5112 16.0667ZM28.7778 12.7334H37.9534L28.7779 3.55782L28.7778 12.7334ZM20.7312 31.2489L14.3978 27L8.02232 31.2445L0 25.8888V0H29.9356L41.5111 11.5755V25.8889L33.4911 31.2445L27.1111 27L20.7312 31.2489ZM27.1112 23L33.4867 27.2445L38.1779 24.1111V12.9577L28.5534 3.33326H3.3333V24.1111L8.02442 27.2444L14.4022 23L20.7356 27.2445L27.1112 23ZM0 30.3711L8.02442 35.7289L14.4045 31.4845L20.7378 35.7289L27.1133 31.4867L33.4889 35.7311L41.5133 30.3733V50H0V30.3711ZM33.4911 39.7356L27.1112 35.4911L20.7312 39.7378L14.3978 35.4934L8.02232 39.7378L3.33335 36.6067V46.6668H38.1779V36.6067L33.4911 39.7356Z" fill="#EFEDE7"/>
</svg>
