<svg width="63" height="50" viewBox="0 0 63 50" fill="none" xmlns="http://www.w3.org/2000/svg">
<path d="M45.3574 24.0898L34.375 17.5V12.5H39.0625C39.9258 12.5 40.625 11.8008 40.625 10.9375V7.8125C40.625 6.94922 39.9258 6.25 39.0625 6.25H34.375V1.5625C34.375 0.699219 33.6758 0 32.8125 0H29.6875C28.8242 0 28.125 0.699219 28.125 1.5625V6.25H23.4375C22.5742 6.25 21.875 6.94922 21.875 7.8125V10.9375C21.875 11.8008 22.5742 12.5 23.4375 12.5H28.125V17.5L17.1426 24.0898C16.6797 24.3674 16.2967 24.7601 16.0307 25.2297C15.7648 25.6994 15.625 26.2298 15.625 26.7695V50H25V40.625C25 37.1729 27.7979 34.375 31.25 34.375C34.7022 34.375 37.5 37.1729 37.5 40.625V50H46.875V26.7695C46.875 25.6719 46.2988 24.6543 45.3574 24.0898ZM0 38.668V48.4375C0 49.3008 0.699219 50 1.5625 50H12.5V31.25L1.89355 35.7949C1.33158 36.0362 0.852681 36.437 0.516124 36.9476C0.179567 37.4583 0.000124048 38.0564 0 38.668ZM60.6065 35.7949L50 31.25V50H60.9375C61.8008 50 62.5 49.3008 62.5 48.4375V38.668C62.5 37.418 61.7549 36.2881 60.6065 35.7949Z" fill="#EFEDE7"/>
</svg>
