<svg width="48" height="526" viewBox="0 0 48 526" fill="none" xmlns="http://www.w3.org/2000/svg">
<circle cx="23.7352" cy="33.7039" r="22.7352" stroke="#332626" stroke-width="2"/>
<path d="M22.7641 29.36C22.7641 28.368 22.6681 27.648 22.4761 27.2C22.2841 26.752 21.9001 26.448 21.3241 26.288C20.7801 26.128 19.8841 26.048 18.6361 26.048C18.5401 26.048 18.4921 25.952 18.4921 25.76C18.4921 25.568 18.5401 25.472 18.6361 25.472C19.5641 25.472 20.3001 25.488 20.8441 25.52L24.1081 25.568L27.3241 25.52C27.8681 25.488 28.6201 25.472 29.5801 25.472C29.6761 25.472 29.7241 25.568 29.7241 25.76C29.7241 25.952 29.6761 26.048 29.5801 26.048C28.3961 26.048 27.5161 26.144 26.9401 26.336C26.3961 26.496 26.0121 26.8 25.7881 27.248C25.5641 27.696 25.4521 28.4 25.4521 29.36V40.112C25.4521 41.104 25.5481 41.824 25.7401 42.272C25.9321 42.72 26.3001 43.024 26.8441 43.184C27.4201 43.344 28.3321 43.424 29.5801 43.424C29.6761 43.424 29.7241 43.52 29.7241 43.712C29.7241 43.904 29.6761 44 29.5801 44C28.6521 44 27.9161 43.984 27.3721 43.952L24.1081 43.904L20.8921 43.952C20.3481 43.984 19.5961 44 18.6361 44C18.5401 44 18.4921 43.904 18.4921 43.712C18.4921 43.52 18.5401 43.424 18.6361 43.424C19.8201 43.424 20.6841 43.344 21.2281 43.184C21.8041 42.992 22.2041 42.672 22.4281 42.224C22.6521 41.776 22.7641 41.072 22.7641 40.112V29.36Z" fill="black"/>
<circle cx="23.7352" cy="150.704" r="22.7352" stroke="#332626" stroke-width="2"/>
<path d="M17.9161 160.28C20.7321 157.976 22.9081 156.104 24.4441 154.664C25.9801 153.192 27.0841 151.88 27.7561 150.728C28.4281 149.576 28.7641 148.424 28.7641 147.272C28.7641 145.992 28.3641 144.952 27.5641 144.152C26.7961 143.32 25.7881 142.904 24.5401 142.904C22.0121 142.904 20.1881 144.888 19.0681 148.856C19.0681 148.888 19.0041 148.904 18.8761 148.904C18.5881 148.904 18.4601 148.84 18.4921 148.712L20.3641 141.416C20.3641 141.352 20.4281 141.32 20.5561 141.32C20.6521 141.32 20.7321 141.352 20.7961 141.416C20.8921 141.448 20.9241 141.48 20.8921 141.512C20.8601 141.64 20.8441 141.816 20.8441 142.04C20.8441 142.552 21.0841 142.808 21.5641 142.808C21.8521 142.808 22.3321 142.696 23.0041 142.472C24.3161 142.056 25.4841 141.848 26.5081 141.848C28.1401 141.848 29.4201 142.296 30.3481 143.192C31.3081 144.056 31.7881 145.192 31.7881 146.6C31.7881 147.72 31.4201 148.84 30.6841 149.96C29.9801 151.08 28.9241 152.28 27.5161 153.56C26.1401 154.808 24.2041 156.392 21.7081 158.312C21.5801 158.408 21.5321 158.488 21.5641 158.552C21.6281 158.616 21.7401 158.648 21.9001 158.648C25.4201 158.648 27.8681 158.6 29.2441 158.504C30.6201 158.408 31.6121 158.152 32.2201 157.736C32.8281 157.32 33.2441 156.584 33.4681 155.528C33.4681 155.464 33.5481 155.432 33.7081 155.432C33.9321 155.432 34.0441 155.48 34.0441 155.576L33.3241 160.472C33.3241 160.6 33.2761 160.728 33.1801 160.856C33.1161 160.952 33.0201 161 32.8921 161H18.2521C18.0921 161 17.9641 160.92 17.8681 160.76C17.7721 160.568 17.7881 160.408 17.9161 160.28Z" fill="black"/>
<path d="M46.4704 266.923C46.4704 279.089 36.3182 289 23.7352 289C11.1522 289 1 279.089 1 266.923C1 254.757 11.1522 244.846 23.7352 244.846C36.3182 244.846 46.4704 254.757 46.4704 266.923Z" stroke="#332626" stroke-width="2"/>
<path d="M26.4121 267.712C28.5241 267.936 30.1241 268.688 31.2121 269.968C32.3321 271.248 32.8921 272.736 32.8921 274.432C32.8921 276 32.3801 277.6 31.3561 279.232C30.3321 280.896 28.7641 282.432 26.6521 283.84C24.5721 285.248 22.0121 286.368 18.9721 287.2C18.8441 287.232 18.7321 287.152 18.6361 286.96C18.5721 286.8 18.6041 286.704 18.7321 286.672C22.5721 285.488 25.3081 283.808 26.9401 281.632C28.6041 279.456 29.4361 277.232 29.4361 274.96C29.4361 273.232 28.9881 271.776 28.0921 270.592C27.1961 269.408 25.8361 268.816 24.0121 268.816C23.1161 268.816 22.3481 268.912 21.7081 269.104C21.6121 269.136 21.5321 269.056 21.4681 268.864C21.4041 268.672 21.4201 268.56 21.5161 268.528C24.0121 267.888 25.7721 266.992 26.7961 265.84C27.8521 264.688 28.3801 263.12 28.3801 261.136C28.3801 259.504 28.0281 258.224 27.3241 257.296C26.6521 256.368 25.6121 255.904 24.2041 255.904C21.3561 255.904 19.3881 257.808 18.3001 261.616C18.2681 261.648 18.2041 261.664 18.1081 261.664C17.8201 261.664 17.6921 261.6 17.7241 261.472L19.5001 254.464C19.5641 254.4 19.6281 254.368 19.6921 254.368C19.7881 254.368 19.8841 254.4 19.9801 254.464C20.0761 254.496 20.1081 254.528 20.0761 254.56C20.0121 254.816 19.9801 254.992 19.9801 255.088C19.9801 255.632 20.2521 255.904 20.7961 255.904C21.0841 255.904 21.5641 255.792 22.2361 255.568C23.5481 255.088 24.7321 254.848 25.7881 254.848C27.5801 254.848 28.9721 255.392 29.9641 256.48C30.9561 257.536 31.4521 258.816 31.4521 260.32C31.4521 261.888 31.0041 263.36 30.1081 264.736C29.2121 266.08 27.9801 267.072 26.4121 267.712Z" fill="black"/>
<circle cx="23.7352" cy="384.027" r="22.7352" stroke="#332626" stroke-width="2"/>
<path d="M31.2651 388.888C31.3931 388.888 31.4571 389.192 31.4571 389.8C31.4571 390.056 31.4251 390.312 31.3611 390.568C31.3291 390.824 31.2811 390.952 31.2171 390.952C30.2571 390.888 28.9131 390.824 27.1851 390.76V398.344C27.1851 398.696 27.0571 398.92 26.8011 399.016L24.7851 400.024C24.5931 400.088 24.4971 400.12 24.4971 400.12C24.4011 400.12 24.3531 399.992 24.3531 399.736V390.712C22.3371 390.648 18.4811 390.616 12.7851 390.616C12.6251 390.616 12.4971 390.552 12.4011 390.424C12.3051 390.296 12.3211 390.168 12.4491 390.04L26.4651 371.992C26.5291 371.928 26.6251 371.896 26.7531 371.896C26.8491 371.896 26.9451 371.928 27.0411 371.992C27.1371 372.024 27.1851 372.088 27.1851 372.184V388.984C27.9211 388.984 29.2811 388.952 31.2651 388.888ZM15.1371 389.176C17.8891 389.176 20.9611 389.144 24.3531 389.08V376.744L14.8971 388.84C14.8011 388.936 14.7691 389.016 14.8011 389.08C14.8651 389.144 14.9771 389.176 15.1371 389.176Z" fill="black"/>
<circle cx="23.7352" cy="501.976" r="22.7352" stroke="#332626" stroke-width="2"/>
<path d="M20.4278 492.4C20.0118 492.4 19.7718 492.624 19.7078 493.072L18.6998 498.592C23.1158 498.624 26.3638 499.44 28.4438 501.04C30.5238 502.608 31.5638 504.784 31.5638 507.568C31.5638 509.392 31.0998 511.04 30.1718 512.512C29.2438 514.016 27.7878 515.456 25.8038 516.832C23.8518 518.24 21.2438 519.696 17.9798 521.2H17.9318C17.8038 521.2 17.6918 521.12 17.5958 520.96C17.5318 520.832 17.5638 520.736 17.6918 520.672C21.6278 518.72 24.3958 516.736 25.9958 514.72C27.5958 512.736 28.3958 510.624 28.3958 508.384C28.3958 505.728 27.4998 503.664 25.7078 502.192C23.9158 500.72 21.3398 499.984 17.9798 499.984C17.8198 499.984 17.6918 499.936 17.5958 499.84C17.4998 499.712 17.4678 499.568 17.4998 499.408L19.0358 490.864C19.0678 490.64 19.1158 490.512 19.1798 490.48C19.2438 490.416 19.4038 490.368 19.6598 490.336C23.6918 489.856 26.3958 489.52 27.7718 489.328C29.1478 489.136 30.0278 488.944 30.4118 488.752C30.8278 488.528 31.1158 488.176 31.2758 487.696C31.3078 487.6 31.4038 487.568 31.5638 487.6C31.7558 487.6 31.8358 487.664 31.8038 487.792L30.8438 491.344C30.7158 491.696 30.5558 491.936 30.3638 492.064C30.2038 492.16 29.9158 492.208 29.4998 492.208L20.4278 492.4Z" fill="black"/>
<rect x="23" y="407" width="3" height="71" fill="#332626"/>
<rect x="23" y="290" width="3" height="71" fill="#332626"/>
<rect x="23" y="174" width="3" height="71" fill="#332626"/>
<rect x="23" y="57" width="3" height="71" fill="#332626"/>
</svg>
