<svg width="153" height="84" viewBox="0 0 153 84" fill="none" xmlns="http://www.w3.org/2000/svg">
<path d="M46.224 83.536C36.8373 83.536 28.6453 81.6587 21.648 77.904C14.736 74.1494 9.44531 69.072 5.77597 62.672C2.10664 56.272 0.271973 49.232 0.271973 41.552C0.271973 33.2747 2.36264 26.064 6.54397 19.92C10.7253 13.6907 16.4426 8.91204 23.696 5.58405C31.0346 2.25604 39.2266 0.592041 48.272 0.592041C52.7946 0.592041 57.0613 1.01871 61.072 1.87204C65.0826 2.72537 68.4106 3.96271 71.056 5.58405C71.7386 5.92537 72.1226 6.22404 72.208 6.48004C72.2933 6.73604 72.3786 7.37604 72.464 8.40004L74 23.504C74 23.76 73.744 23.9307 73.232 24.016C72.8053 24.1014 72.5493 23.9734 72.464 23.632C68.5386 9.63738 59.664 2.64005 45.84 2.64005C39.0986 2.64005 32.9973 4.17604 27.536 7.24804C22.16 10.2347 17.8933 14.544 14.736 20.176C11.664 25.7227 10.128 32.208 10.128 39.632C10.128 46.8854 11.6213 53.712 14.608 60.112C17.5946 66.512 22.0746 71.7174 28.048 75.728C34.0213 79.6534 41.232 81.616 49.68 81.616C55.7386 81.616 60.0053 80.464 62.48 78.16C64.9546 75.7707 66.192 71.7174 66.192 66C66.192 61.5627 65.8933 58.4907 65.296 56.784C64.784 54.992 63.5466 53.7974 61.584 53.2C59.7066 52.6027 56.3786 52.304 51.6 52.304C51.088 52.304 50.832 51.9627 50.832 51.28C50.832 51.024 50.8746 50.8107 50.96 50.64C51.1306 50.384 51.3013 50.256 51.472 50.256C58.128 50.6827 63.504 50.896 67.6 50.896C71.5253 50.896 75.7493 50.768 80.272 50.512C80.4426 50.512 80.5706 50.64 80.656 50.896C80.8266 51.0667 80.912 51.2374 80.912 51.408C80.912 52.0054 80.6986 52.304 80.272 52.304C78.1386 52.2187 76.6453 52.5174 75.792 53.2C75.024 53.7974 74.512 55.0774 74.256 57.04C74 58.9174 73.872 62.3307 73.872 67.28C73.872 71.12 74 73.8507 74.256 75.472C74.5973 77.0934 74.768 78.1174 74.768 78.544C74.768 79.056 74.6826 79.3974 74.512 79.568C74.3413 79.7387 73.9573 79.9094 73.36 80.08C62.7786 82.384 53.7333 83.536 46.224 83.536Z" fill="white"/>
<path d="M97.6321 16.3951C97.6321 19.7253 98.833 22.6286 101.235 25.1049C103.637 27.5813 106.544 29.6734 109.957 31.3812C113.497 33.0036 118.3 35.053 124.368 37.5293C131.068 40.2618 136.187 42.5247 139.727 44.3179C143.393 46.1111 146.49 48.4167 149.018 51.2346C151.673 53.9671 153 57.2546 153 61.0972C153 65.196 151.483 68.9105 148.449 72.2407C145.415 75.571 140.928 78.2181 134.986 80.1821C129.172 82.0607 122.156 83 113.939 83C104.205 83 95.2935 81.5057 87.2032 78.517C86.5711 78.2608 86.1287 77.9619 85.8758 77.6204C85.7494 77.2788 85.623 76.7665 85.4966 76.0833L83.0316 58.6636C82.9052 58.322 83.158 58.1085 83.7901 58.0231C84.5485 57.9378 84.991 58.0658 85.1174 58.4074C87.14 64.5556 90.8691 69.8498 96.3047 74.2901C101.867 78.7305 109.199 80.9506 118.3 80.9506C124.621 80.9506 129.93 79.7978 134.228 77.4923C138.652 75.1013 140.865 71.3441 140.865 66.2207C140.865 62.3781 139.6 59.0478 137.072 56.2299C134.544 53.412 131.447 51.1065 127.781 49.3133C124.242 47.4347 119.375 45.2572 113.181 42.7809C107.113 40.3045 102.309 38.1698 98.7698 36.3765C95.3567 34.5833 92.4492 32.3205 90.0474 29.588C87.6456 26.8555 86.4447 23.6533 86.4447 19.9815C86.4447 15.7119 88.088 12.0828 91.3747 9.09414C94.7878 6.02007 99.149 3.7572 104.458 2.30556C109.894 0.768519 115.646 0 121.713 0C129.172 0 136.567 1.02469 143.898 3.07407C145.795 3.50103 146.743 4.22685 146.743 5.25154L148.07 19.9815C148.07 20.323 147.754 20.4938 147.122 20.4938C146.49 20.4938 146.111 20.323 145.984 19.9815C144.973 15.5412 142.255 11.4424 137.831 7.68518C133.406 3.84259 127.023 1.92129 118.679 1.92129C111.6 1.92129 106.291 3.33025 102.752 6.14815C99.3386 8.88066 97.6321 12.2963 97.6321 16.3951Z" fill="white"/>
</svg>
